<svg xmlns="http://www.w3.org/2000/svg" xml:space="preserve" width="2000" height="805" data-id="lg_DI9prQ7ESBzx5PgDKO" data-version="1" viewBox="0 0 2000 805"><g data-padding="20"><g fill="#26ff00"><path d="M1167.102 238.274a88.434 88.434 0 1 0-126.8 123.306 88.434 88.434 0 1 0 126.8-123.306m117.511 161.642a52.434 75.776-8.6 1 0-22.663-149.847 52.434 75.776-8.6 1 0 22.663 149.847"/><path d="M1339.143 345.587c4.731 27.468 20.221 47.597 34.69 45.059 14.465-2.417 22.354-26.664 17.623-54.133-4.734-27.346-20.346-47.477-34.752-44.998s-22.295 26.725-17.623 54.133m-113.967-172.035c23.704 24.993 53.585 35.092 66.788 22.733 13.084-12.483 4.618-42.927-18.964-67.918-23.703-24.994-53.522-35.153-66.728-22.671-13.143 12.42-4.678 42.865 18.904 67.856m-208.439-52.417c-5.088 28.61 24.404 57.703 65.71 65.1 41.427 7.276 78.995-9.92 84.084-38.53s-24.343-57.762-65.708-65.1-78.997 9.92-84.086 38.53m46.454-55.868c27.265 5.434 51.724-1.775 54.663-16.044 2.82-14.393-16.807-30.5-44.071-36.056s-51.722 1.652-54.603 16.105c-2.94 14.27 16.869 30.439 44.073 35.934M962.15 235.381a88.52 88.52 0 1 0-126.923 123.427A88.52 88.52 0 1 0 962.15 235.38"/><path d="M723.38 393.662a75.776 52.434-79.8 1 0 26.837-149.157 75.776 52.434-79.8 1 0-26.837 149.157"/><path d="M646.695 281.6c-14.33-2.88-30.499 16.808-36.055 44.072-5.495 27.204 1.714 51.661 16.105 54.603s30.439-16.87 35.995-44.132c5.495-27.204-1.714-51.663-16.045-54.543m133.98-114.193c24.331-24.383 33.52-54.458 20.79-67.302-12.853-12.846-43.004-3.462-67.397 20.859-24.27 24.323-33.581 54.397-20.73 67.242 12.854 12.846 42.943 3.522 67.336-20.799m59.344-24.2c4.288 28.743 41.36 46.98 82.976 40.863 41.495-6.241 71.79-34.5 67.502-63.24s-41.422-47.04-82.976-40.861c-41.556 6.179-71.727 34.439-67.503 63.239m105.73-79.52c27.349-4.855 47.478-20.345 45.061-34.811-2.478-14.405-26.785-22.357-54.194-17.563s-47.537 20.284-44.999 34.75c2.478 14.406 26.726 22.295 54.133 17.624m-51.259 530.776c48.89.683 89.077-38.398 89.76-87.286.682-48.89-38.399-89.077-87.288-89.76s-89.076 38.398-89.759 87.286 38.4 89.077 87.287 89.76M714.263 417.522a52.434 75.776-8.6 1 0 22.661 149.847 52.434 75.776-8.6 1 0-22.662-149.847"/><path d="M660.886 460.098c-4.793-27.41-20.284-47.538-34.748-45.121-14.468 2.538-22.358 26.785-17.564 54.194 4.792 27.408 20.284 47.537 34.751 44.999 14.406-2.478 22.295-26.726 17.561-54.072m113.118 172.016c-23.582-24.992-53.4-35.151-66.605-22.67-13.206 12.483-4.74 42.926 18.903 67.857 23.705 24.994 53.46 35.213 66.788 22.732 13.084-12.482 4.619-42.926-19.086-67.92m208.562 52.42c5.089-28.61-24.404-57.703-65.708-65.1-41.429-7.277-78.999 10.04-84.147 38.588-4.966 28.612 24.465 57.765 65.708 65.1 41.246 7.336 79.059-9.978 84.147-38.587m-46.323 55.259c-27.325-5.498-51.663 1.714-54.604 16.105s16.808 30.499 44.074 35.933c27.263 5.557 51.661-1.714 54.542-16.044 2.879-14.332-16.808-30.5-44.012-35.994m228.034-292.426a88.52 88.52 0 1 0-126.921 123.426 88.52 88.52 0 1 0 126.921-123.426m153.367 59.776c7.337-41.366-9.918-78.996-38.529-84.084s-57.763 24.343-65.1 65.709 9.979 79.058 38.589 84.147c28.55 5.026 57.704-24.405 65.04-65.772m35.751 17.002c14.393 2.82 30.5-16.807 36.056-44.07 5.495-27.205-1.715-51.663-16.105-54.604s-30.439 16.868-35.934 44.072c-5.557 27.264 1.653 51.723 15.983 54.602m-67.44 93.443c-12.793-12.784-43.005-3.462-67.276 20.861-24.393 24.321-33.642 54.335-20.851 67.24s43.064 3.525 67.397-20.859c24.268-24.201 33.581-54.396 20.73-67.242m-277.212 67.193c4.288 28.742 41.481 47.103 82.977 40.863 41.494-6.12 71.787-34.378 67.44-63.18-4.166-28.74-41.3-47.04-82.917-40.8-41.494 6.119-71.727 34.438-67.44 63.18m44.885 56.52c-27.346 4.733-47.477 20.346-44.998 34.751s26.725 22.295 54.133 17.624c27.346-4.734 47.476-20.345 45.06-34.811-2.479-14.406-26.726-22.295-54.195-17.563"/></g><path fill="transparent" stroke="transparent" d="M597 0h806v805H597z"/></g></svg>